<svg width="325" height="89" viewBox="0 0 325 89" fill="none" xmlns="http://www.w3.org/2000/svg">
<rect y="13" width="139" height="54" fill="#FFE000"/>
<path d="M34.112 60L25.344 46.496L21.76 50.208V60H11.52V13.28H21.76V40.352L33.088 26.4H43.968L31.872 40.864L44.992 60H34.112ZM47.8295 13.28H58.0695V48.032C58.0695 50.592 59.1575 51.872 61.3335 51.872C61.8455 51.872 62.4002 51.808 62.9975 51.68C63.6375 51.5093 64.2135 51.2747 64.7255 50.976L66.0695 58.656C64.7895 59.2533 63.3175 59.7227 61.6535 60.064C59.9895 60.4053 58.4322 60.576 56.9815 60.576C54.0375 60.576 51.7762 59.808 50.1975 58.272C48.6188 56.736 47.8295 54.5173 47.8295 51.616V13.28ZM78.931 60.64C77.267 60.64 75.7097 60.384 74.259 59.872C72.851 59.3173 71.635 58.5707 70.611 57.632C69.587 56.6507 68.7763 55.52 68.179 54.24C67.5817 52.9173 67.283 51.488 67.283 49.952C67.283 48.288 67.6243 46.7733 68.307 45.408C69.0323 44.0427 70.035 42.8693 71.315 41.888C72.595 40.9067 74.1097 40.1387 75.859 39.584C77.6083 39.0293 79.5497 38.752 81.683 38.752C83.091 38.752 84.4563 38.88 85.779 39.136C87.1017 39.3493 88.2537 39.6907 89.235 40.16V38.624C89.235 34.7413 86.995 32.8 82.515 32.8C80.6803 32.8 78.931 33.12 77.267 33.76C75.603 34.3573 73.8537 35.2747 72.019 36.512L69.011 30.112C71.2297 28.6613 73.5337 27.5733 75.923 26.848C78.3123 26.1227 80.851 25.76 83.539 25.76C88.6163 25.76 92.5417 26.9547 95.315 29.344C98.0883 31.7333 99.475 35.232 99.475 39.84V48.48C99.475 49.504 99.6243 50.2293 99.923 50.656C100.264 51.04 100.84 51.2747 101.651 51.36V60C100.755 60.2133 99.9443 60.3413 99.219 60.384C98.4937 60.4693 97.8323 60.512 97.235 60.512C95.315 60.512 93.8643 60.1493 92.883 59.424C91.9017 58.656 91.283 57.5893 91.027 56.224L90.835 54.688C89.3417 56.608 87.5497 58.08 85.459 59.104C83.411 60.128 81.235 60.64 78.931 60.64ZM81.939 53.28C83.0483 53.28 84.115 53.088 85.139 52.704C86.2057 52.32 87.0803 51.808 87.763 51.168C88.7443 50.4 89.235 49.5893 89.235 48.736V45.536C88.339 45.1947 87.3577 44.9387 86.291 44.768C85.267 44.5547 84.307 44.448 83.411 44.448C81.5337 44.448 79.9763 44.8747 78.739 45.728C77.5443 46.5813 76.947 47.6907 76.947 49.056C76.947 50.2933 77.4163 51.3173 78.355 52.128C79.2937 52.896 80.4883 53.28 81.939 53.28ZM120.143 60.64C117.284 60.64 114.468 60.192 111.695 59.296C108.922 58.3573 106.575 57.0133 104.655 55.264L108.303 48.992C110.351 50.4 112.335 51.488 114.255 52.256C116.218 53.024 118.095 53.408 119.887 53.408C121.21 53.408 122.234 53.1733 122.959 52.704C123.684 52.2347 124.047 51.552 124.047 50.656C124.047 49.76 123.578 49.056 122.639 48.544C121.743 47.9893 120.143 47.4133 117.839 46.816C115.578 46.176 113.658 45.5573 112.079 44.96C110.543 44.3627 109.284 43.7013 108.303 42.976C107.322 42.2507 106.618 41.4187 106.191 40.48C105.764 39.5413 105.551 38.432 105.551 37.152C105.551 35.4453 105.892 33.888 106.575 32.48C107.258 31.072 108.196 29.8773 109.391 28.896C110.586 27.9147 111.994 27.1467 113.615 26.592C115.279 26.0373 117.071 25.76 118.991 25.76C121.508 25.76 123.855 26.1013 126.031 26.784C128.25 27.4667 130.383 28.704 132.431 30.496L128.463 36.64C126.543 35.3173 124.836 34.3573 123.343 33.76C121.85 33.1627 120.399 32.864 118.991 32.864C117.882 32.864 116.943 33.0987 116.175 33.568C115.407 33.9947 115.023 34.6987 115.023 35.68C115.023 36.6187 115.428 37.3227 116.239 37.792C117.092 38.2613 118.65 38.7733 120.911 39.328C123.3 39.968 125.306 40.608 126.927 41.248C128.591 41.888 129.935 42.6133 130.959 43.424C131.983 44.192 132.73 45.088 133.199 46.112C133.668 47.136 133.903 48.352 133.903 49.76C133.903 53.088 132.666 55.7333 130.191 57.696C127.716 59.6587 124.367 60.64 120.143 60.64ZM161.425 60L152.657 46.496L149.073 50.208V60H138.833V13.28H149.073V40.352L160.401 26.4H171.281L159.185 40.864L172.305 60H161.425ZM175.27 60V26.4H185.51V60H175.27ZM175.27 22.56V13.28H185.51V22.56H175.27ZM214.28 58.208C212.872 58.8053 211.251 59.36 209.416 59.872C207.624 60.384 205.811 60.64 203.976 60.64C202.696 60.64 201.48 60.4693 200.328 60.128C199.219 59.8293 198.237 59.3387 197.384 58.656C196.531 57.9307 195.848 56.992 195.336 55.84C194.867 54.688 194.632 53.3013 194.632 51.68V34.144H190.344V26.4H194.632V15.712H204.872V26.4H211.72V34.144H204.872V48.16C204.872 49.2693 205.149 50.08 205.704 50.592C206.259 51.0613 206.963 51.296 207.816 51.296C208.584 51.296 209.373 51.168 210.184 50.912C210.995 50.656 211.699 50.3787 212.296 50.08L214.28 58.208ZM227.806 60.64C226.142 60.64 224.585 60.384 223.134 59.872C221.726 59.3173 220.51 58.5707 219.486 57.632C218.462 56.6507 217.651 55.52 217.054 54.24C216.457 52.9173 216.158 51.488 216.158 49.952C216.158 48.288 216.499 46.7733 217.182 45.408C217.907 44.0427 218.91 42.8693 220.19 41.888C221.47 40.9067 222.985 40.1387 224.734 39.584C226.483 39.0293 228.425 38.752 230.558 38.752C231.966 38.752 233.331 38.88 234.654 39.136C235.977 39.3493 237.129 39.6907 238.11 40.16V38.624C238.11 34.7413 235.87 32.8 231.39 32.8C229.555 32.8 227.806 33.12 226.142 33.76C224.478 34.3573 222.729 35.2747 220.894 36.512L217.886 30.112C220.105 28.6613 222.409 27.5733 224.798 26.848C227.187 26.1227 229.726 25.76 232.414 25.76C237.491 25.76 241.417 26.9547 244.19 29.344C246.963 31.7333 248.35 35.232 248.35 39.84V48.48C248.35 49.504 248.499 50.2293 248.798 50.656C249.139 51.04 249.715 51.2747 250.526 51.36V60C249.63 60.2133 248.819 60.3413 248.094 60.384C247.369 60.4693 246.707 60.512 246.11 60.512C244.19 60.512 242.739 60.1493 241.758 59.424C240.777 58.656 240.158 57.5893 239.902 56.224L239.71 54.688C238.217 56.608 236.425 58.08 234.334 59.104C232.286 60.128 230.11 60.64 227.806 60.64ZM230.814 53.28C231.923 53.28 232.99 53.088 234.014 52.704C235.081 52.32 235.955 51.808 236.638 51.168C237.619 50.4 238.11 49.5893 238.11 48.736V45.536C237.214 45.1947 236.233 44.9387 235.166 44.768C234.142 44.5547 233.182 44.448 232.286 44.448C230.409 44.448 228.851 44.8747 227.614 45.728C226.419 46.5813 225.822 47.6907 225.822 49.056C225.822 50.2933 226.291 51.3173 227.23 52.128C228.169 52.896 229.363 53.28 230.814 53.28Z" fill="black"/>
<path d="M15.028 78.146C14.916 78.0153 14.7667 77.8893 14.58 77.768C14.3933 77.6467 14.1833 77.5393 13.95 77.446C13.7167 77.3433 13.46 77.264 13.18 77.208C12.9093 77.1427 12.6247 77.11 12.326 77.11C11.5513 77.11 10.982 77.2547 10.618 77.544C10.2633 77.8333 10.086 78.23 10.086 78.734C10.086 79.0047 10.1373 79.2287 10.24 79.406C10.3427 79.5833 10.5013 79.7373 10.716 79.868C10.94 79.9893 11.2153 80.0967 11.542 80.19C11.8687 80.2833 12.256 80.3813 12.704 80.484C13.2173 80.596 13.6793 80.7267 14.09 80.876C14.51 81.016 14.8647 81.1933 15.154 81.408C15.4527 81.6227 15.6767 81.884 15.826 82.192C15.9847 82.5 16.064 82.878 16.064 83.326C16.064 83.802 15.9707 84.2173 15.784 84.572C15.5973 84.9173 15.3407 85.2067 15.014 85.44C14.6967 85.664 14.3187 85.832 13.88 85.944C13.4413 86.0467 12.9653 86.098 12.452 86.098C11.6867 86.098 10.9587 85.9813 10.268 85.748C9.58667 85.5053 8.966 85.1553 8.406 84.698L9.008 83.634C9.15733 83.7927 9.34867 83.9513 9.582 84.11C9.82467 84.2687 10.0953 84.4133 10.394 84.544C10.702 84.6653 11.0287 84.768 11.374 84.852C11.7287 84.9267 12.0973 84.964 12.48 84.964C13.1893 84.964 13.74 84.838 14.132 84.586C14.524 84.334 14.72 83.956 14.72 83.452C14.72 83.172 14.6547 82.9387 14.524 82.752C14.4027 82.556 14.2207 82.388 13.978 82.248C13.7353 82.108 13.432 81.9867 13.068 81.884C12.7133 81.772 12.3073 81.66 11.85 81.548C11.346 81.4267 10.9027 81.296 10.52 81.156C10.1373 81.016 9.81533 80.848 9.554 80.652C9.302 80.456 9.11067 80.218 8.98 79.938C8.84933 79.658 8.784 79.322 8.784 78.93C8.784 78.454 8.87267 78.034 9.05 77.67C9.22733 77.306 9.47467 76.998 9.792 76.746C10.1093 76.494 10.4873 76.3073 10.926 76.186C11.3647 76.0553 11.8407 75.99 12.354 75.99C13.026 75.99 13.6327 76.0927 14.174 76.298C14.7153 76.5033 15.196 76.7787 15.616 77.124L15.028 78.146ZM20.7593 86.14C20.2086 86.14 19.7046 86.042 19.2473 85.846C18.7899 85.6407 18.3979 85.3653 18.0713 85.02C17.7446 84.6747 17.4879 84.2733 17.3013 83.816C17.1239 83.3493 17.0353 82.8593 17.0353 82.346C17.0353 81.8327 17.1239 81.3473 17.3013 80.89C17.4879 80.4327 17.7446 80.0313 18.0713 79.686C18.4073 79.3407 18.8039 79.07 19.2613 78.874C19.7186 78.6687 20.2226 78.566 20.7733 78.566C21.3239 78.566 21.8233 78.6687 22.2713 78.874C22.7286 79.0793 23.1159 79.3547 23.4333 79.7C23.7506 80.036 23.9933 80.4327 24.1613 80.89C24.3386 81.338 24.4273 81.8047 24.4273 82.29C24.4273 82.3927 24.4226 82.486 24.4133 82.57C24.4133 82.654 24.4086 82.7193 24.3993 82.766H18.3373C18.3653 83.13 18.4492 83.4613 18.5892 83.76C18.7293 84.0587 18.9113 84.3153 19.1353 84.53C19.3593 84.7447 19.6113 84.9127 19.8913 85.034C20.1806 85.1553 20.4839 85.216 20.8013 85.216C21.0253 85.216 21.2446 85.188 21.4593 85.132C21.6739 85.0667 21.8746 84.9827 22.0613 84.88C22.2479 84.7773 22.4113 84.6513 22.5513 84.502C22.7006 84.3527 22.8126 84.1847 22.8873 83.998L23.9513 84.292C23.8299 84.5627 23.6619 84.81 23.4473 85.034C23.2419 85.258 22.9993 85.454 22.7193 85.622C22.4486 85.7807 22.1453 85.9067 21.8093 86C21.4733 86.0933 21.1233 86.14 20.7593 86.14ZM23.2653 81.856C23.2373 81.5107 23.1486 81.1933 22.9993 80.904C22.8593 80.6053 22.6773 80.3533 22.4533 80.148C22.2386 79.9427 21.9866 79.784 21.6973 79.672C21.4079 79.5507 21.0999 79.49 20.7733 79.49C20.4466 79.49 20.1386 79.5507 19.8493 79.672C19.5599 79.784 19.3033 79.9473 19.0793 80.162C18.8646 80.3673 18.6873 80.6147 18.5473 80.904C18.4166 81.1933 18.3373 81.5107 18.3093 81.856H23.2653ZM25.8247 75.78H27.0567V84.11C27.0567 84.3807 27.1267 84.5953 27.2667 84.754C27.4161 84.9033 27.6214 84.978 27.8827 84.978C27.9854 84.978 28.1067 84.964 28.2467 84.936C28.3867 84.8987 28.5174 84.8567 28.6387 84.81L28.8347 85.804C28.6294 85.888 28.3867 85.958 28.1067 86.014C27.8267 86.07 27.5794 86.098 27.3647 86.098C26.8887 86.098 26.5107 85.9627 26.2307 85.692C25.9601 85.4213 25.8247 85.0433 25.8247 84.558V75.78ZM30.1946 86V79.658H29.2006V78.692H30.1946V78.538C30.1946 77.6327 30.3953 76.9233 30.7966 76.41C31.1979 75.8967 31.7439 75.64 32.4346 75.64C32.7239 75.64 33.0086 75.682 33.2886 75.766C33.5686 75.8407 33.8206 75.948 34.0446 76.088L33.7366 76.998C33.6059 76.9047 33.4426 76.83 33.2466 76.774C33.0599 76.718 32.8733 76.69 32.6866 76.69C32.2759 76.69 31.9633 76.844 31.7486 77.152C31.5339 77.46 31.4266 77.908 31.4266 78.496V78.692H33.3726V79.658H31.4266V86H30.1946ZM34.189 82.738V81.618H38.319V82.738H34.189ZM44.1409 86.14C43.5342 86.14 42.9976 85.9907 42.5309 85.692C42.0736 85.3933 41.7096 85.0153 41.4389 84.558V88.982H40.2069V78.692H41.2989V80.064C41.5882 79.616 41.9616 79.2567 42.4189 78.986C42.8856 78.706 43.3989 78.566 43.9589 78.566C44.4629 78.566 44.9249 78.6687 45.3449 78.874C45.7649 79.0793 46.1289 79.3593 46.4369 79.714C46.7449 80.0593 46.9829 80.4607 47.1509 80.918C47.3282 81.3753 47.4169 81.8513 47.4169 82.346C47.4169 82.8687 47.3376 83.3633 47.1789 83.83C47.0202 84.2873 46.7962 84.6887 46.5069 85.034C46.2176 85.37 45.8722 85.6407 45.4709 85.846C45.0696 86.042 44.6262 86.14 44.1409 86.14ZM43.7629 85.076C44.1269 85.076 44.4536 85.0013 44.7429 84.852C45.0416 84.6933 45.2936 84.488 45.4989 84.236C45.7136 83.9747 45.8769 83.6807 45.9889 83.354C46.1009 83.0273 46.1569 82.6913 46.1569 82.346C46.1569 81.982 46.0916 81.6367 45.9609 81.31C45.8302 80.974 45.6529 80.6847 45.4289 80.442C45.2049 80.19 44.9389 79.994 44.6309 79.854C44.3322 79.7047 44.0056 79.63 43.6509 79.63C43.4269 79.63 43.1936 79.6767 42.9509 79.77C42.7176 79.854 42.4936 79.9707 42.2789 80.12C42.0736 80.26 41.8916 80.4327 41.7329 80.638C41.5836 80.834 41.4856 81.044 41.4389 81.268V83.354C41.5416 83.5967 41.6722 83.8253 41.8309 84.04C41.9896 84.2453 42.1716 84.4273 42.3769 84.586C42.5822 84.7353 42.8016 84.8567 43.0349 84.95C43.2682 85.034 43.5109 85.076 43.7629 85.076ZM52.7935 79.77C52.1775 79.7887 51.6315 79.9473 51.1555 80.246C50.6889 80.5447 50.3575 80.96 50.1615 81.492V86H48.9295V78.692H50.0775V80.386C50.3295 79.882 50.6609 79.476 51.0715 79.168C51.4822 78.8507 51.9209 78.6733 52.3875 78.636C52.4809 78.636 52.5602 78.636 52.6255 78.636C52.6909 78.636 52.7469 78.6407 52.7935 78.65V79.77ZM55.8915 86.14C55.5462 86.14 55.2242 86.084 54.9255 85.972C54.6268 85.8507 54.3655 85.6873 54.1415 85.482C53.9268 85.2767 53.7542 85.0387 53.6235 84.768C53.5022 84.488 53.4415 84.1847 53.4415 83.858C53.4415 83.522 53.5162 83.2187 53.6655 82.948C53.8148 82.668 54.0248 82.43 54.2955 82.234C54.5755 82.038 54.9022 81.884 55.2755 81.772C55.6582 81.66 56.0735 81.604 56.5215 81.604C56.8762 81.604 57.2355 81.6367 57.5995 81.702C57.9635 81.7673 58.2855 81.856 58.5655 81.968V81.38C58.5655 80.7827 58.3975 80.316 58.0615 79.98C57.7255 79.6347 57.2495 79.462 56.6335 79.462C55.8962 79.462 55.1215 79.7467 54.3095 80.316L53.9035 79.518C54.8462 78.8833 55.7935 78.566 56.7455 78.566C57.7068 78.566 58.4535 78.8227 58.9855 79.336C59.5268 79.8493 59.7975 80.5727 59.7975 81.506V84.488C59.7975 84.7773 59.9282 84.9267 60.1895 84.936V86C60.0588 86.0187 59.9515 86.0327 59.8675 86.042C59.7835 86.0513 59.6948 86.056 59.6015 86.056C59.3588 86.056 59.1628 85.986 59.0135 85.846C58.8735 85.6967 58.7895 85.5193 58.7615 85.314L58.7335 84.796C58.4068 85.2347 57.9915 85.5707 57.4875 85.804C56.9928 86.028 56.4608 86.14 55.8915 86.14ZM56.2135 85.216C56.6522 85.216 57.0582 85.1367 57.4315 84.978C57.8142 84.81 58.1035 84.5907 58.2995 84.32C58.4768 84.1427 58.5655 83.9607 58.5655 83.774V82.696C57.9682 82.4627 57.3475 82.346 56.7035 82.346C56.0875 82.346 55.5835 82.4767 55.1915 82.738C54.8088 82.9993 54.6175 83.34 54.6175 83.76C54.6175 83.9653 54.6548 84.1567 54.7295 84.334C54.8135 84.5113 54.9255 84.6653 55.0655 84.796C55.2148 84.9267 55.3875 85.0293 55.5835 85.104C55.7795 85.1787 55.9895 85.216 56.2135 85.216ZM61.2774 82.332C61.2774 81.8187 61.3661 81.3333 61.5434 80.876C61.7208 80.4187 61.9728 80.022 62.2994 79.686C62.6261 79.3407 63.0134 79.07 63.4614 78.874C63.9188 78.6687 64.4274 78.566 64.9874 78.566C65.7154 78.566 66.3408 78.7293 66.8634 79.056C67.3954 79.3733 67.7968 79.8027 68.0674 80.344L66.8634 80.722C66.6768 80.3767 66.4154 80.1107 66.0794 79.924C65.7434 79.728 65.3701 79.63 64.9594 79.63C64.6234 79.63 64.3061 79.7 64.0074 79.84C63.7088 79.9707 63.4521 80.1573 63.2374 80.4C63.0228 80.6427 62.8501 80.9273 62.7194 81.254C62.5981 81.5807 62.5374 81.94 62.5374 82.332C62.5374 82.7147 62.6028 83.074 62.7334 83.41C62.8641 83.746 63.0368 84.04 63.2514 84.292C63.4754 84.5347 63.7321 84.726 64.0214 84.866C64.3201 85.006 64.6374 85.076 64.9734 85.076C65.1881 85.076 65.3981 85.048 65.6034 84.992C65.8181 84.9267 66.0094 84.8427 66.1774 84.74C66.3548 84.6373 66.5088 84.5207 66.6394 84.39C66.7701 84.25 66.8634 84.1007 66.9194 83.942L68.1234 84.306C68.0114 84.5767 67.8528 84.824 67.6474 85.048C67.4514 85.272 67.2181 85.4633 66.9474 85.622C66.6768 85.7807 66.3734 85.9067 66.0374 86C65.7108 86.0933 65.3654 86.14 65.0014 86.14C64.4508 86.14 63.9468 86.0373 63.4894 85.832C63.0321 85.6267 62.6401 85.3513 62.3134 85.006C61.9868 84.6607 61.7301 84.2593 61.5434 83.802C61.3661 83.3353 61.2774 82.8453 61.2774 82.332ZM73.2994 85.636C73.2247 85.6733 73.1267 85.72 73.0054 85.776C72.8841 85.8227 72.7441 85.874 72.5854 85.93C72.4361 85.9767 72.2681 86.014 72.0814 86.042C71.9041 86.0793 71.7174 86.098 71.5214 86.098C71.0734 86.098 70.6861 85.9767 70.3594 85.734C70.0327 85.482 69.8694 85.0947 69.8694 84.572V79.658H68.8754V78.692H69.8694V76.256H71.1014V78.692H72.7394V79.658H71.1014V84.194C71.1201 84.4647 71.2087 84.6607 71.3674 84.782C71.5261 84.9033 71.7127 84.964 71.9274 84.964C72.1701 84.964 72.3894 84.9267 72.5854 84.852C72.7907 84.768 72.9307 84.7027 73.0054 84.656L73.2994 85.636ZM74.4413 86V78.692H75.6733V86H74.4413ZM74.4413 77.32V75.78H75.6733V77.32H74.4413ZM77.1778 82.332C77.1778 81.8187 77.2665 81.3333 77.4438 80.876C77.6212 80.4187 77.8732 80.022 78.1998 79.686C78.5265 79.3407 78.9138 79.07 79.3618 78.874C79.8192 78.6687 80.3278 78.566 80.8878 78.566C81.6158 78.566 82.2412 78.7293 82.7638 79.056C83.2958 79.3733 83.6972 79.8027 83.9678 80.344L82.7638 80.722C82.5772 80.3767 82.3158 80.1107 81.9798 79.924C81.6438 79.728 81.2705 79.63 80.8598 79.63C80.5238 79.63 80.2065 79.7 79.9078 79.84C79.6092 79.9707 79.3525 80.1573 79.1378 80.4C78.9232 80.6427 78.7505 80.9273 78.6198 81.254C78.4985 81.5807 78.4378 81.94 78.4378 82.332C78.4378 82.7147 78.5032 83.074 78.6338 83.41C78.7645 83.746 78.9372 84.04 79.1518 84.292C79.3758 84.5347 79.6325 84.726 79.9218 84.866C80.2205 85.006 80.5378 85.076 80.8738 85.076C81.0885 85.076 81.2985 85.048 81.5038 84.992C81.7185 84.9267 81.9098 84.8427 82.0778 84.74C82.2552 84.6373 82.4092 84.5207 82.5398 84.39C82.6705 84.25 82.7638 84.1007 82.8198 83.942L84.0238 84.306C83.9118 84.5767 83.7532 84.824 83.5478 85.048C83.3518 85.272 83.1185 85.4633 82.8478 85.622C82.5772 85.7807 82.2738 85.9067 81.9378 86C81.6112 86.0933 81.2658 86.14 80.9018 86.14C80.3512 86.14 79.8472 86.0373 79.3898 85.832C78.9325 85.6267 78.5405 85.3513 78.2138 85.006C77.8872 84.6607 77.6305 84.2593 77.4438 83.802C77.2665 83.3353 77.1778 82.8453 77.1778 82.332ZM88.5854 86.14C88.0348 86.14 87.5308 86.042 87.0734 85.846C86.6161 85.6407 86.2241 85.3653 85.8974 85.02C85.5708 84.6747 85.3141 84.2733 85.1274 83.816C84.9501 83.3493 84.8614 82.8593 84.8614 82.346C84.8614 81.8327 84.9501 81.3473 85.1274 80.89C85.3141 80.4327 85.5708 80.0313 85.8974 79.686C86.2334 79.3407 86.6301 79.07 87.0874 78.874C87.5448 78.6687 88.0488 78.566 88.5994 78.566C89.1501 78.566 89.6494 78.6687 90.0974 78.874C90.5548 79.0793 90.9421 79.3547 91.2594 79.7C91.5768 80.036 91.8194 80.4327 91.9874 80.89C92.1648 81.338 92.2534 81.8047 92.2534 82.29C92.2534 82.3927 92.2488 82.486 92.2394 82.57C92.2394 82.654 92.2348 82.7193 92.2254 82.766H86.1634C86.1914 83.13 86.2754 83.4613 86.4154 83.76C86.5554 84.0587 86.7374 84.3153 86.9614 84.53C87.1854 84.7447 87.4374 84.9127 87.7174 85.034C88.0068 85.1553 88.3101 85.216 88.6274 85.216C88.8514 85.216 89.0708 85.188 89.2854 85.132C89.5001 85.0667 89.7008 84.9827 89.8874 84.88C90.0741 84.7773 90.2374 84.6513 90.3774 84.502C90.5268 84.3527 90.6388 84.1847 90.7134 83.998L91.7774 84.292C91.6561 84.5627 91.4881 84.81 91.2734 85.034C91.0681 85.258 90.8254 85.454 90.5454 85.622C90.2748 85.7807 89.9714 85.9067 89.6354 86C89.2994 86.0933 88.9494 86.14 88.5854 86.14ZM91.0914 81.856C91.0634 81.5107 90.9748 81.1933 90.8254 80.904C90.6854 80.6053 90.5034 80.3533 90.2794 80.148C90.0648 79.9427 89.8128 79.784 89.5234 79.672C89.2341 79.5507 88.9261 79.49 88.5994 79.49C88.2728 79.49 87.9648 79.5507 87.6754 79.672C87.3861 79.784 87.1294 79.9473 86.9054 80.162C86.6908 80.3673 86.5134 80.6147 86.3734 80.904C86.2428 81.1933 86.1634 81.5107 86.1354 81.856H91.0914ZM103.198 78.146C103.086 78.0153 102.937 77.8893 102.75 77.768C102.563 77.6467 102.353 77.5393 102.12 77.446C101.887 77.3433 101.63 77.264 101.35 77.208C101.079 77.1427 100.795 77.11 100.496 77.11C99.7213 77.11 99.1519 77.2547 98.7879 77.544C98.4333 77.8333 98.2559 78.23 98.2559 78.734C98.2559 79.0047 98.3073 79.2287 98.4099 79.406C98.5126 79.5833 98.6713 79.7373 98.8859 79.868C99.1099 79.9893 99.3853 80.0967 99.7119 80.19C100.039 80.2833 100.426 80.3813 100.874 80.484C101.387 80.596 101.849 80.7267 102.26 80.876C102.68 81.016 103.035 81.1933 103.324 81.408C103.623 81.6227 103.847 81.884 103.996 82.192C104.155 82.5 104.234 82.878 104.234 83.326C104.234 83.802 104.141 84.2173 103.954 84.572C103.767 84.9173 103.511 85.2067 103.184 85.44C102.867 85.664 102.489 85.832 102.05 85.944C101.611 86.0467 101.135 86.098 100.622 86.098C99.8566 86.098 99.1286 85.9813 98.4379 85.748C97.7566 85.5053 97.1359 85.1553 96.5759 84.698L97.1779 83.634C97.3273 83.7927 97.5186 83.9513 97.7519 84.11C97.9946 84.2687 98.2653 84.4133 98.5639 84.544C98.8719 84.6653 99.1986 84.768 99.5439 84.852C99.8986 84.9267 100.267 84.964 100.65 84.964C101.359 84.964 101.91 84.838 102.302 84.586C102.694 84.334 102.89 83.956 102.89 83.452C102.89 83.172 102.825 82.9387 102.694 82.752C102.573 82.556 102.391 82.388 102.148 82.248C101.905 82.108 101.602 81.9867 101.238 81.884C100.883 81.772 100.477 81.66 100.02 81.548C99.5159 81.4267 99.0726 81.296 98.6899 81.156C98.3073 81.016 97.9853 80.848 97.7239 80.652C97.4719 80.456 97.2806 80.218 97.1499 79.938C97.0193 79.658 96.9539 79.322 96.9539 78.93C96.9539 78.454 97.0426 78.034 97.2199 77.67C97.3973 77.306 97.6446 76.998 97.9619 76.746C98.2793 76.494 98.6573 76.3073 99.0959 76.186C99.5346 76.0553 100.011 75.99 100.524 75.99C101.196 75.99 101.803 76.0927 102.344 76.298C102.885 76.5033 103.366 76.7787 103.786 77.124L103.198 78.146ZM109.629 86.14C109.023 86.14 108.486 85.9907 108.019 85.692C107.562 85.3933 107.198 85.0153 106.927 84.558V88.982H105.695V78.692H106.787V80.064C107.077 79.616 107.45 79.2567 107.907 78.986C108.374 78.706 108.887 78.566 109.447 78.566C109.951 78.566 110.413 78.6687 110.833 78.874C111.253 79.0793 111.617 79.3593 111.925 79.714C112.233 80.0593 112.471 80.4607 112.639 80.918C112.817 81.3753 112.905 81.8513 112.905 82.346C112.905 82.8687 112.826 83.3633 112.667 83.83C112.509 84.2873 112.285 84.6887 111.995 85.034C111.706 85.37 111.361 85.6407 110.959 85.846C110.558 86.042 110.115 86.14 109.629 86.14ZM109.251 85.076C109.615 85.076 109.942 85.0013 110.231 84.852C110.53 84.6933 110.782 84.488 110.987 84.236C111.202 83.9747 111.365 83.6807 111.477 83.354C111.589 83.0273 111.645 82.6913 111.645 82.346C111.645 81.982 111.58 81.6367 111.449 81.31C111.319 80.974 111.141 80.6847 110.917 80.442C110.693 80.19 110.427 79.994 110.119 79.854C109.821 79.7047 109.494 79.63 109.139 79.63C108.915 79.63 108.682 79.6767 108.439 79.77C108.206 79.854 107.982 79.9707 107.767 80.12C107.562 80.26 107.38 80.4327 107.221 80.638C107.072 80.834 106.974 81.044 106.927 81.268V83.354C107.03 83.5967 107.161 83.8253 107.319 84.04C107.478 84.2453 107.66 84.4273 107.865 84.586C108.071 84.7353 108.29 84.8567 108.523 84.95C108.757 85.034 108.999 85.076 109.251 85.076ZM116.294 86.14C115.948 86.14 115.626 86.084 115.328 85.972C115.029 85.8507 114.768 85.6873 114.544 85.482C114.329 85.2767 114.156 85.0387 114.026 84.768C113.904 84.488 113.844 84.1847 113.844 83.858C113.844 83.522 113.918 83.2187 114.068 82.948C114.217 82.668 114.427 82.43 114.698 82.234C114.978 82.038 115.304 81.884 115.678 81.772C116.06 81.66 116.476 81.604 116.924 81.604C117.278 81.604 117.638 81.6367 118.002 81.702C118.366 81.7673 118.688 81.856 118.968 81.968V81.38C118.968 80.7827 118.8 80.316 118.464 79.98C118.128 79.6347 117.652 79.462 117.036 79.462C116.298 79.462 115.524 79.7467 114.712 80.316L114.306 79.518C115.248 78.8833 116.196 78.566 117.148 78.566C118.109 78.566 118.856 78.8227 119.388 79.336C119.929 79.8493 120.2 80.5727 120.2 81.506V84.488C120.2 84.7773 120.33 84.9267 120.592 84.936V86C120.461 86.0187 120.354 86.0327 120.27 86.042C120.186 86.0513 120.097 86.056 120.004 86.056C119.761 86.056 119.565 85.986 119.416 85.846C119.276 85.6967 119.192 85.5193 119.164 85.314L119.136 84.796C118.809 85.2347 118.394 85.5707 117.89 85.804C117.395 86.028 116.863 86.14 116.294 86.14ZM116.616 85.216C117.054 85.216 117.46 85.1367 117.834 84.978C118.216 84.81 118.506 84.5907 118.702 84.32C118.879 84.1427 118.968 83.9607 118.968 83.774V82.696C118.37 82.4627 117.75 82.346 117.106 82.346C116.49 82.346 115.986 82.4767 115.594 82.738C115.211 82.9993 115.02 83.34 115.02 83.76C115.02 83.9653 115.057 84.1567 115.132 84.334C115.216 84.5113 115.328 84.6653 115.468 84.796C115.617 84.9267 115.79 85.0293 115.986 85.104C116.182 85.1787 116.392 85.216 116.616 85.216ZM121.68 82.332C121.68 81.8187 121.768 81.3333 121.946 80.876C122.123 80.4187 122.375 80.022 122.702 79.686C123.028 79.3407 123.416 79.07 123.864 78.874C124.321 78.6687 124.83 78.566 125.39 78.566C126.118 78.566 126.743 78.7293 127.266 79.056C127.798 79.3733 128.199 79.8027 128.47 80.344L127.266 80.722C127.079 80.3767 126.818 80.1107 126.482 79.924C126.146 79.728 125.772 79.63 125.362 79.63C125.026 79.63 124.708 79.7 124.41 79.84C124.111 79.9707 123.854 80.1573 123.64 80.4C123.425 80.6427 123.252 80.9273 123.122 81.254C123 81.5807 122.94 81.94 122.94 82.332C122.94 82.7147 123.005 83.074 123.136 83.41C123.266 83.746 123.439 84.04 123.654 84.292C123.878 84.5347 124.134 84.726 124.424 84.866C124.722 85.006 125.04 85.076 125.376 85.076C125.59 85.076 125.8 85.048 126.006 84.992C126.22 84.9267 126.412 84.8427 126.58 84.74C126.757 84.6373 126.911 84.5207 127.042 84.39C127.172 84.25 127.266 84.1007 127.322 83.942L128.526 84.306C128.414 84.5767 128.255 84.824 128.05 85.048C127.854 85.272 127.62 85.4633 127.35 85.622C127.079 85.7807 126.776 85.9067 126.44 86C126.113 86.0933 125.768 86.14 125.404 86.14C124.853 86.14 124.349 86.0373 123.892 85.832C123.434 85.6267 123.042 85.3513 122.716 85.006C122.389 84.6607 122.132 84.2593 121.946 83.802C121.768 83.3353 121.68 82.8453 121.68 82.332ZM133.087 86.14C132.537 86.14 132.033 86.042 131.575 85.846C131.118 85.6407 130.726 85.3653 130.399 85.02C130.073 84.6747 129.816 84.2733 129.629 83.816C129.452 83.3493 129.363 82.8593 129.363 82.346C129.363 81.8327 129.452 81.3473 129.629 80.89C129.816 80.4327 130.073 80.0313 130.399 79.686C130.735 79.3407 131.132 79.07 131.589 78.874C132.047 78.6687 132.551 78.566 133.101 78.566C133.652 78.566 134.151 78.6687 134.599 78.874C135.057 79.0793 135.444 79.3547 135.761 79.7C136.079 80.036 136.321 80.4327 136.489 80.89C136.667 81.338 136.755 81.8047 136.755 82.29C136.755 82.3927 136.751 82.486 136.741 82.57C136.741 82.654 136.737 82.7193 136.727 82.766H130.665C130.693 83.13 130.777 83.4613 130.917 83.76C131.057 84.0587 131.239 84.3153 131.463 84.53C131.687 84.7447 131.939 84.9127 132.219 85.034C132.509 85.1553 132.812 85.216 133.129 85.216C133.353 85.216 133.573 85.188 133.787 85.132C134.002 85.0667 134.203 84.9827 134.389 84.88C134.576 84.7773 134.739 84.6513 134.879 84.502C135.029 84.3527 135.141 84.1847 135.215 83.998L136.279 84.292C136.158 84.5627 135.99 84.81 135.775 85.034C135.57 85.258 135.327 85.454 135.047 85.622C134.777 85.7807 134.473 85.9067 134.137 86C133.801 86.0933 133.451 86.14 133.087 86.14ZM135.593 81.856C135.565 81.5107 135.477 81.1933 135.327 80.904C135.187 80.6053 135.005 80.3533 134.781 80.148C134.567 79.9427 134.315 79.784 134.025 79.672C133.736 79.5507 133.428 79.49 133.101 79.49C132.775 79.49 132.467 79.5507 132.177 79.672C131.888 79.784 131.631 79.9473 131.407 80.162C131.193 80.3673 131.015 80.6147 130.875 80.904C130.745 81.1933 130.665 81.5107 130.637 81.856H135.593Z" fill="black"/>
</svg>
